<?xml version="1.0" standalone="no"?>
<svg viewBox="0 0 200 200" xmlns="http://www.w3.org/2000/svg">
  <path fill="#f2f2f2" d="M34.6,-42.4C49.5,-36.8,69.4,-32.9,77.5,-21.9C85.6,-10.9,82,7.3,72.5,19.5C63,31.8,47.6,38.1,34.6,47.8C21.5,57.5,10.8,70.6,-0.9,71.8C-12.6,73.1,-25.2,62.5,-37.8,52.7C-50.5,42.9,-63.2,33.8,-69.8,20.9C-76.4,8.1,-76.8,-8.5,-72.2,-23.8C-67.7,-39.1,-58.3,-53.2,-45.4,-59.4C-32.6,-65.6,-16.3,-64,-3.2,-59.5C9.9,-55.1,19.7,-47.9,34.6,-42.4Z" transform="translate(100 100)" />
</svg>
